<svg width="53" height="57" viewBox="0 0 53 57" fill="none" xmlns="http://www.w3.org/2000/svg">
<path d="M53 28.6377C53 13.3607 41.128 0.9646 26.5 0.9646C11.872 0.9646 0 13.3607 0 28.6377C0 37.0518 3.657 44.6349 9.381 49.725C9.434 49.7804 9.487 49.7804 9.487 49.8358C9.964 50.2236 10.441 50.6114 10.971 50.9992C11.236 51.1654 11.448 51.3836 11.713 51.6052C16.0941 54.705 21.2626 56.3632 26.553 56.3662C31.8434 56.3632 37.0119 54.705 41.393 51.6052C41.658 51.439 41.87 51.2208 42.135 51.0511C42.612 50.6668 43.142 50.279 43.619 49.8912C43.672 49.8358 43.725 49.8358 43.725 49.7804C49.343 44.6315 53 37.0518 53 28.6377ZM26.5 52.8794C21.518 52.8794 16.96 51.2173 13.197 48.4507C13.25 48.0075 13.356 47.5678 13.462 47.1246C13.7789 45.9238 14.242 44.7705 14.84 43.6931C15.423 42.6405 16.112 41.6987 16.96 40.8676C17.755 40.0366 18.709 39.2644 19.663 38.655C20.67 38.0456 21.73 37.6024 22.896 37.27C24.0714 36.9409 25.2831 36.7744 26.5 36.7748C30.1131 36.7462 33.5938 38.1951 36.199 40.8122C37.418 42.0865 38.372 43.5812 39.061 45.2963C39.432 46.2935 39.697 47.345 39.856 48.4507C35.9445 51.3252 31.2814 52.8715 26.5 52.8794ZM18.391 27.2561C17.925 26.1382 17.6902 24.9299 17.702 23.7104C17.702 22.4951 17.914 21.2762 18.391 20.1682C18.868 19.0602 19.504 18.0664 20.299 17.2354C21.094 16.4043 22.048 15.743 23.108 15.2444C24.168 14.7458 25.334 14.5241 26.5 14.5241C27.719 14.5241 28.832 14.7458 29.892 15.2444C30.952 15.743 31.906 16.4078 32.701 17.2354C33.496 18.0664 34.132 19.0636 34.609 20.1682C35.086 21.2762 35.298 22.4951 35.298 23.7104C35.298 24.9847 35.086 26.1481 34.609 27.2527C34.1513 28.3458 33.5044 29.3413 32.701 30.189C31.8898 31.0276 30.9375 31.7025 29.892 32.18C27.7015 33.1189 25.2455 33.1189 23.055 32.18C22.0095 31.7025 21.0572 31.0276 20.246 30.189C19.4419 29.3533 18.8105 28.3573 18.391 27.2561ZM42.983 45.6287C42.983 45.5179 42.93 45.4625 42.93 45.3517C42.4097 43.618 41.6413 41.9766 40.651 40.4833C39.6599 38.979 38.4429 37.6519 37.047 36.5532C35.9806 35.7143 34.8245 35.0078 33.602 34.448C34.1556 34.0609 34.6705 33.6166 35.139 33.1218C35.9292 32.3064 36.6231 31.395 37.206 30.4071C38.3838 28.393 38.9904 26.0707 38.955 23.7104C38.9723 21.9635 38.6477 20.2313 38.001 18.6204C37.3633 17.068 36.4456 15.6584 35.298 14.4687C34.1493 13.2951 32.8012 12.3557 31.323 11.6987C29.7796 11.023 28.1202 10.6847 26.447 10.7049C24.7736 10.6858 23.1142 11.0252 21.571 11.7021C20.0765 12.3511 18.7241 13.3113 17.596 14.5241C16.4674 15.7186 15.5679 17.1279 14.946 18.6758C14.2993 20.2867 13.9747 22.0189 13.992 23.7658C13.992 24.9847 14.151 26.147 14.469 27.2527C14.787 28.4161 15.211 29.4687 15.794 30.4625C16.324 31.4597 17.066 32.3462 17.861 33.1772C18.338 33.6758 18.868 34.1179 19.451 34.5034C18.223 35.0748 17.0662 35.8004 16.006 36.664C14.628 37.7721 13.409 39.0982 12.402 40.5387C11.4025 42.0264 10.6334 43.6693 10.123 45.4071C10.07 45.5179 10.07 45.6287 10.07 45.6841C5.883 41.2554 3.286 35.279 3.286 28.6377C3.286 15.2998 13.727 4.39604 26.5 4.39604C39.273 4.39604 49.714 15.2998 49.714 28.6377C49.7071 35.0088 47.287 41.1177 42.983 45.6287Z" fill="url(#paint0_linear_19_1557)"/>
<defs>
<linearGradient id="paint0_linear_19_1557" x1="26.5" y1="0.9646" x2="26.5" y2="56.3662" gradientUnits="userSpaceOnUse">
<stop stop-color="#5D5D5D"/>
</linearGradient>
</defs>
</svg>
